<svg xmlns="http://www.w3.org/2000/svg" viewBox="0 0 560 96" role="img" aria-labelledby="title">
  <title id="title">AZ EduManage</title>
  <defs>
    <linearGradient id="az-blue" x1="0" x2="1" y1="0.15" y2="0.9">
      <stop offset="0" stop-color="#1d66ff"/>
      <stop offset="1" stop-color="#07315f"/>
    </linearGradient>
    <linearGradient id="az-navy" x1="0" x2="1" y1="0" y2="1">
      <stop offset="0" stop-color="#073a73"/>
      <stop offset="1" stop-color="#041d3c"/>
    </linearGradient>
  </defs>
  <g fill="none" fill-rule="evenodd">
    <g transform="translate(4 10)">
      <path fill="#06305d" d="M40 0 0 20.7l40 17.5 40-17.5z"/>
      <path fill="#0f66ff" d="M4 29.8v44.1c13.4 1.2 26.5 4.8 36 12V38.2z"/>
      <path fill="#062d58" d="M76 29.8v44.1c-13.4 1.2-26.5 4.8-36 12V38.2z"/>
      <path stroke="#fff" stroke-linecap="round" stroke-linejoin="round" stroke-width="4.4" d="m4 29.8 36 15.8 36-15.8M40 45.6v40.2"/>
      <path stroke="#062d58" stroke-linecap="round" stroke-width="3.8" d="M76 20.7h11.2v25.9"/>
      <circle cx="87.2" cy="48.8" r="4.2" fill="#062d58"/>
      <path fill="#062d58" d="m84.6 53.2-2.7 12.4h10.7l-2.7-12.4z"/>
      <path stroke="#fff" stroke-linecap="round" stroke-width="3.3" d="M10.5 72.5c12.3 1.5 22.4 4.7 29.5 9.9M69.5 72.5c-12.3 1.5-22.4 4.7-29.5 9.9"/>
    </g>
    <text x="108" y="70" fill="#1d66ff" font-family="Inter, Arial, sans-serif" font-size="58" font-weight="800" letter-spacing="-1">AZ</text>
    <text x="200" y="70" fill="#ffffff" font-family="Inter, Arial, sans-serif" font-size="50" font-weight="700" letter-spacing="-1">EduManage</text>
  </g>
</svg>
