<svg xmlns="http://www.w3.org/2000/svg" viewBox="0 0 123 123" role="img" aria-labelledby="title">
  <title id="title">Edumanage</title>
  <circle cx="61.5" cy="61.5" r="61.5" fill="#f8fbff"/>
  <circle cx="61.5" cy="61.5" r="56.5" fill="none" stroke="#0e3554" stroke-width="2"/>
  <path d="M61.5 12 95 97 75.5 97 61.5 52 47.5 97 28 97z" fill="#0e3554"/>
  <path d="M61.5 29 82.5 91 72.5 91 61.5 58 50.5 91 40.5 91z" fill="#f8fbff"/>
  <path d="M46 67h30l-22 23h27" fill="none" stroke="#0e3554" stroke-width="6" stroke-linecap="round" stroke-linejoin="round"/>
  <path d="M21 98c17 1 31 6 40.5 15 9.5-9 23.5-14 40.5-15-13 8-26.5 12-40.5 12S34 106 21 98z" fill="#0e3554"/>
  <path d="M20 91c14 2 27 7 41.5 17C76 98 89 93 103 91" fill="none" stroke="#0e3554" stroke-width="5" stroke-linecap="round"/>
</svg>
