<svg xmlns="http://www.w3.org/2000/svg" viewBox="0 0 600 147" role="img" aria-labelledby="title">
  <title id="title">Edumanage</title>
  <rect width="600" height="147" fill="#0e3554"/>
  <g transform="translate(52 12)">
    <circle cx="61.5" cy="61.5" r="61.5" fill="#f8fbff"/>
    <circle cx="61.5" cy="61.5" r="56.5" fill="none" stroke="#0e3554" stroke-width="2"/>
    <path d="M61.5 12 95 97 75.5 97 61.5 52 47.5 97 28 97z" fill="#0e3554"/>
    <path d="M61.5 29 82.5 91 72.5 91 61.5 58 50.5 91 40.5 91z" fill="#f8fbff"/>
    <path d="M46 67h30l-22 23h27" fill="none" stroke="#0e3554" stroke-width="6" stroke-linecap="round" stroke-linejoin="round"/>
    <path d="M21 98c17 1 31 6 40.5 15 9.5-9 23.5-14 40.5-15-13 8-26.5 12-40.5 12S34 106 21 98z" fill="#0e3554"/>
    <path d="M20 91c14 2 27 7 41.5 17C76 98 89 93 103 91" fill="none" stroke="#0e3554" stroke-width="5" stroke-linecap="round"/>
  </g>
  <path d="M183 20v116" stroke="#ffffff" stroke-width="2" opacity=".75"/>
  <text x="195" y="82" fill="#ffffff" font-family="Arial, Helvetica, sans-serif" font-size="60" font-weight="400">Edumanage</text>
  <text x="510" y="49" fill="#ffffff" font-family="Arial, Helvetica, sans-serif" font-size="25" font-weight="400">R</text>
  <circle cx="522" cy="40" r="14" fill="none" stroke="#ffffff" stroke-width="2"/>
  <text x="257" y="122" fill="#ffffff" font-family="Arial, Helvetica, sans-serif" font-size="27" font-weight="400">Manage .Teach . Scale</text>
</svg>
