<?xml version="1.0" standalone="no"?>
<!DOCTYPE svg PUBLIC "-//W3C//DTD SVG 20010904//EN"
 "http://www.w3.org/TR/2001/REC-SVG-20010904/DTD/svg10.dtd">
<svg version="1.0" xmlns="http://www.w3.org/2000/svg"
 width="1873.000000pt" height="459.000000pt" viewBox="0 0 1873.000000 459.000000"
 preserveAspectRatio="xMidYMid meet">

<g transform="translate(0.000000,459.000000) scale(0.100000,-0.100000)"
fill="#000000" stroke="none">
<path d="M0 2295 l0 -2295 9365 0 9365 0 0 2295 0 2295 -9365 0 -9365 0 0
-2295z m3358 1945 c225 -24 431 -84 647 -190 215 -105 345 -198 523 -373 468
-460 665 -1120 532 -1777 -87 -429 -342 -841 -695 -1122 -380 -303 -890 -459
-1365 -419 -496 41 -902 230 -1250 580 -302 305 -490 687 -546 1114 -24 180
-15 458 21 627 108 518 397 948 835 1244 113 76 339 187 471 230 121 39 278
73 389 85 109 12 330 12 438 1z m1980 -2068 c2 -1615 0 -1822 -13 -1822 -13 0
-15 208 -15 1826 0 1456 3 1825 13 1822 9 -4 13 -380 15 -1826z m11565 1591
c122 -58 209 -173 227 -302 39 -277 -191 -505 -467 -461 -129 21 -237 104
-296 228 -30 62 -32 74 -31 172 0 92 3 112 26 162 31 67 104 149 166 185 71
42 119 53 217 50 77 -2 100 -7 158 -34z m-10275 -250 l3 -63 -366 0 -365 0 0
-265 0 -265 340 0 340 0 0 -65 0 -65 -340 0 -340 0 0 -275 0 -275 370 0 370 0
0 -60 0 -60 -440 0 -440 0 0 730 0 730 433 -2 432 -3 3 -62z m1152 -663 l0
-730 -65 0 -65 0 0 101 0 101 -42 -63 c-48 -71 -127 -133 -192 -150 -23 -6
-81 -9 -131 -7 -74 3 -101 9 -156 34 -124 59 -221 192 -254 349 -19 90 -19
250 0 340 33 157 130 290 254 349 62 29 73 31 181 31 100 0 120 -3 157 -23 60
-31 107 -76 145 -134 l33 -51 3 292 2 291 65 0 65 0 0 -730z m2040 338 c59
-25 112 -77 140 -139 l23 -49 29 50 c15 27 51 67 78 89 67 53 136 75 237 74
72 0 91 -4 147 -32 74 -36 118 -82 155 -161 l26 -55 3 -422 3 -423 -66 0 -65
0 0 383 c0 244 -4 396 -11 421 -29 104 -98 156 -216 164 -123 8 -208 -39 -254
-140 -24 -52 -24 -57 -27 -440 l-3 -388 -64 0 -64 0 -3 408 -3 409 -30 48
c-104 168 -384 128 -450 -64 -12 -37 -15 -110 -15 -423 l0 -378 -70 0 -70 0 0
540 0 540 65 0 65 0 0 -92 0 -92 28 45 c86 135 265 190 412 127z m1732 -17
c70 -33 123 -84 160 -153 23 -43 23 -47 26 -470 l3 -428 -66 0 -65 0 0 86 0
87 -37 -51 c-72 -96 -169 -142 -303 -142 -156 0 -267 59 -328 175 -24 44 -27
61 -27 145 0 105 10 133 66 189 68 69 183 106 425 137 168 22 197 37 202 104
8 106 -58 205 -150 228 -152 38 -311 -14 -368 -121 l-23 -44 -64 16 c-34 8
-63 19 -63 23 0 22 46 95 85 137 83 89 184 122 351 117 99 -3 117 -6 176 -35z
m1138 8 c31 -15 72 -41 93 -58 46 -41 94 -138 107 -216 5 -33 10 -223 10 -422
l0 -363 -70 0 -70 0 0 379 c0 409 -2 425 -55 495 -14 18 -49 46 -77 62 -47 26
-63 29 -138 29 -74 0 -92 -4 -145 -30 -39 -19 -71 -45 -92 -73 -60 -79 -63
-107 -63 -504 l0 -358 -65 0 -65 0 0 540 0 541 63 -3 62 -3 5 -85 5 -85 17 30
c34 62 123 126 201 146 18 4 75 7 127 6 77 -2 105 -8 150 -28z m1092 -7 c78
-38 147 -109 174 -180 16 -42 19 -92 22 -459 l3 -413 -70 0 -71 0 0 86 0 86
-32 -48 c-69 -101 -181 -149 -332 -142 -148 7 -249 65 -303 176 -24 49 -28 69
-28 142 1 67 5 94 22 126 59 112 174 161 463 199 200 26 210 32 210 127 -1 95
-53 172 -139 203 -55 19 -163 19 -228 0 -59 -17 -139 -84 -159 -131 l-14 -32
-57 15 c-32 8 -61 18 -65 21 -12 11 27 87 68 131 83 93 194 132 359 128 100
-3 116 -6 177 -35z m1029 23 c67 -24 131 -76 178 -145 l41 -62 0 106 0 106 65
0 66 0 -3 -607 c-4 -679 -1 -648 -76 -748 -77 -102 -195 -149 -372 -149 -168
0 -269 34 -354 121 -34 34 -82 111 -74 118 2 1 27 13 57 26 l54 23 16 -24 c37
-56 66 -81 126 -111 136 -67 317 -46 414 49 62 60 72 92 78 267 7 183 5 192
-29 134 -50 -85 -133 -144 -235 -169 -71 -16 -198 1 -272 37 -111 54 -208 183
-242 323 -20 80 -17 279 5 360 48 175 177 316 320 351 56 13 190 10 237 -6z
m1212 0 c207 -63 335 -260 337 -517 l0 -58 -405 0 c-379 0 -405 -1 -405 -17 0
-10 7 -48 14 -84 27 -128 92 -219 192 -269 72 -36 197 -40 278 -10 66 25 137
85 156 131 10 24 18 29 34 25 12 -2 38 -8 59 -11 20 -4 40 -11 43 -16 10 -17
-40 -100 -91 -148 -97 -92 -195 -125 -354 -119 -98 3 -112 6 -182 41 -178 86
-279 269 -279 506 1 274 123 476 330 542 69 22 207 24 273 4z m-7791 -382 l3
-388 29 -58 c23 -47 39 -66 85 -95 50 -32 65 -36 139 -40 131 -7 222 39 277
139 l30 54 5 385 5 385 68 3 67 3 0 -541 0 -540 -65 0 -65 0 0 92 0 91 -31
-44 c-59 -84 -135 -131 -240 -149 -173 -30 -335 51 -405 203 l-29 62 -3 413
-3 412 65 0 65 0 3 -387z m4960 -1305 c41 -20 63 -47 73 -90 7 -27 5 -28 -28
-28 -27 0 -37 5 -42 20 -12 37 -54 60 -109 60 -80 0 -128 -47 -106 -105 11
-29 43 -46 133 -69 119 -32 178 -97 163 -181 -18 -97 -144 -150 -267 -114 -45
14 -96 64 -108 106 -11 37 -7 43 29 43 20 0 30 -8 43 -36 22 -46 73 -68 135
-59 83 12 129 88 83 134 -11 11 -61 32 -112 47 -71 22 -101 37 -131 65 -35 33
-38 40 -38 89 0 49 3 56 40 91 62 59 157 70 242 27z m-5840 -183 c42 -110 79
-209 83 -220 5 -15 19 15 54 110 27 72 64 171 83 220 l35 90 49 0 49 0 3 -262
2 -263 -35 0 -35 0 0 218 -1 217 -33 -90 c-19 -49 -56 -146 -83 -215 -47 -120
-51 -125 -80 -128 l-31 -3 -80 203 c-44 112 -82 210 -85 218 -3 8 -6 -83 -6
-202 l-1 -218 -30 0 -30 0 0 266 0 265 47 -3 48 -3 77 -200z m3288 175 l0 -30
-80 0 -80 0 0 -235 0 -235 -35 0 -35 0 -2 233 -3 232 -82 3 -83 3 0 29 0 30
200 0 200 0 0 -30z m1318 -63 l3 -87 28 21 c61 45 149 29 195 -34 19 -25 21
-46 25 -183 l3 -154 -36 0 -36 0 0 139 c0 131 -1 142 -22 166 -14 15 -38 28
-60 32 -32 5 -41 1 -68 -25 l-30 -30 0 -141 0 -141 -35 0 -35 0 0 266 0 265
33 -3 32 -3 3 -88z m2290 -174 l2 -263 -35 0 -35 0 0 266 0 265 33 -3 32 -3 3
-262z m-6208 115 c25 -13 51 -34 57 -48 9 -17 13 -77 13 -177 l0 -153 -30 0
c-26 0 -30 4 -30 27 0 23 -2 25 -12 11 -39 -48 -107 -61 -173 -34 -43 18 -66
54 -67 103 -1 76 36 103 165 124 84 13 97 24 78 65 -23 51 -111 57 -155 9 -16
-17 -29 -22 -49 -18 -35 7 -34 28 2 62 56 52 133 63 201 29z m415 8 c64 -27
75 -60 75 -233 l0 -153 -30 0 -30 0 0 130 c0 144 -11 183 -56 200 -41 16 -62
12 -96 -19 l-33 -29 -3 -141 -4 -141 -29 0 -29 0 0 195 0 195 30 0 c26 0 30
-4 30 -27 l0 -26 23 20 c50 46 92 54 152 29z m421 -11 c52 -34 59 -58 63 -222
l3 -153 -36 0 c-29 0 -36 4 -36 20 0 18 -2 18 -36 -5 -64 -44 -167 -26 -198
34 -31 59 -15 125 37 153 12 6 60 19 107 28 74 13 85 18 88 37 2 14 -7 33 -23
49 -23 22 -33 26 -67 21 -24 -3 -51 -16 -67 -30 -19 -19 -33 -24 -53 -20 -33
6 -34 10 -11 43 44 65 163 88 229 45z m359 15 c14 -5 37 -22 50 -36 l25 -27 0
32 c0 28 3 31 30 31 l30 0 0 -222 c0 -204 -2 -226 -20 -255 -28 -47 -73 -67
-150 -67 -71 0 -129 25 -151 66 -12 22 -13 21 20 38 20 10 25 10 33 -4 12 -22
61 -46 93 -46 75 0 115 46 115 133 l0 40 -21 -26 c-28 -37 -90 -52 -146 -36
-99 27 -149 152 -108 270 33 93 118 140 200 109z m490 -20 c44 -27 72 -80 76
-145 l4 -50 -143 -3 c-143 -3 -143 -3 -137 -25 19 -67 56 -97 120 -97 27 0 44
8 66 30 24 24 36 28 59 23 17 -3 30 -10 30 -16 0 -5 -18 -27 -40 -48 -47 -45
-106 -58 -176 -39 -52 15 -108 73 -118 122 -18 90 4 189 52 231 55 49 143 56
207 17z m1190 -1 c45 -30 75 -92 75 -152 l0 -47 -140 0 c-127 0 -140 -2 -140
-17 0 -30 38 -83 68 -94 42 -17 103 -4 129 26 17 20 28 24 48 19 73 -18 -34
-113 -128 -114 -174 -1 -249 250 -111 371 51 44 141 47 199 8z m404 6 c53 -27
61 -57 61 -225 l0 -150 -30 0 c-26 0 -30 4 -30 27 l0 27 -31 -30 c-26 -25 -38
-29 -89 -29 -72 0 -109 23 -130 83 -13 37 -12 45 3 77 21 44 57 61 162 76 l75
11 0 33 c0 43 -23 60 -82 60 -42 0 -54 -4 -74 -28 -18 -21 -29 -26 -49 -21
-29 7 -31 20 -9 53 40 57 149 75 223 36z m397 6 c41 -19 84 -63 84 -86 0 -7
-12 -16 -26 -19 -22 -6 -32 -1 -54 26 -24 28 -34 33 -73 33 -51 0 -82 -21
-103 -72 -31 -72 -4 -176 51 -201 48 -22 85 -15 122 24 27 29 39 35 58 30 34
-9 31 -30 -7 -71 -68 -71 -174 -72 -244 -2 -102 103 -68 297 61 342 54 19 82
18 131 -4z m1865 8 c39 -13 95 -62 102 -89 3 -12 -2 -20 -17 -24 -35 -10 -42
-7 -54 18 -7 16 -25 29 -52 37 -81 25 -141 -33 -141 -136 0 -91 42 -145 114
-145 38 0 87 34 87 61 0 11 56 6 68 -6 2 -2 -6 -20 -18 -41 -62 -99 -219 -95
-287 7 -57 87 -38 232 39 289 52 39 102 48 159 29z m435 -14 c52 -34 59 -58
63 -222 l3 -153 -36 0 c-29 0 -36 4 -36 20 0 18 -2 18 -36 -5 -64 -44 -167
-26 -198 34 -31 59 -15 125 37 153 12 6 60 19 107 28 74 13 85 18 88 37 2 14
-7 33 -23 49 -23 22 -33 26 -67 21 -24 -3 -51 -16 -67 -30 -19 -19 -33 -24
-53 -20 -33 6 -34 10 -11 43 44 65 163 88 229 45z m562 6 c20 -10 45 -27 54
-38 27 -29 48 -88 48 -133 l0 -40 -141 0 -141 0 6 -32 c3 -18 20 -46 37 -62
28 -25 37 -28 82 -23 40 3 56 10 72 31 18 22 27 26 48 21 35 -9 34 -26 -3 -63
-82 -83 -235 -59 -286 45 -25 50 -26 164 -1 210 48 90 143 126 225 84z m-4410
-303 c19 -19 15 -66 -7 -78 -27 -14 -37 -13 -55 6 -32 31 -14 84 29 84 12 0
26 -5 33 -12z m2420 0 c19 -19 15 -66 -7 -78 -27 -14 -37 -13 -55 6 -32 31
-14 84 29 84 12 0 26 -5 33 -12z"/>
<path d="M2940 4209 c-513 -63 -951 -296 -1268 -673 -695 -829 -573 -2053 271
-2730 377 -302 849 -449 1337 -415 273 19 507 85 753 211 472 243 839 699 971
1208 51 194 60 272 60 495 0 230 -11 312 -65 510 -103 374 -330 722 -630 965
-268 218 -559 351 -899 411 -132 24 -412 33 -530 18z m465 -134 c808 -121
1433 -763 1526 -1565 26 -227 1 -507 -64 -725 -193 -641 -732 -1120 -1404
-1247 -170 -32 -466 -32 -636 0 -767 145 -1347 743 -1462 1507 -8 57 -15 169
-15 260 0 285 55 526 179 780 259 529 761 898 1346 989 123 19 405 20 530 1z"/>
<path d="M2907 3497 c-822 -1627 -827 -1638 -779 -1653 74 -23 141 -66 207
-131 69 -69 143 -115 225 -139 22 -6 21 -2 -17 39 -87 94 -103 160 -79 316 9
56 21 145 26 197 9 100 20 126 160 389 37 69 95 180 213 405 33 63 79 151 102
195 23 44 70 134 105 200 35 66 64 121 65 123 2 2 31 -52 65 -120 34 -68 66
-127 70 -133 4 -5 44 -82 90 -170 45 -88 122 -234 170 -325 48 -91 121 -231
163 -311 l76 -146 22 -169 c11 -93 23 -194 26 -226 7 -80 -17 -145 -80 -215
-43 -47 -48 -55 -27 -49 79 24 156 70 228 139 78 74 122 103 194 126 63 20
129 -125 -689 1504 -167 334 -305 607 -306 607 -1 0 -105 -204 -230 -453z"/>
<path d="M3756 3209 c245 -256 380 -535 430 -886 8 -59 16 -108 18 -110 10
-10 15 196 7 277 -32 304 -191 565 -451 742 l-75 51 71 -74z"/>
<path d="M2473 3212 c-106 -80 -228 -211 -286 -308 -99 -167 -157 -408 -142
-588 4 -47 10 -88 14 -91 5 -2 11 29 14 70 27 309 179 642 407 888 45 48 79
87 77 87 -3 0 -41 -26 -84 -58z"/>
<path d="M2783 2545 c-28 -33 -29 -37 -19 -90 6 -30 13 -55 16 -55 4 0 12 10
19 23 29 55 42 57 390 57 l321 0 -13 33 -13 32 -317 5 c-234 4 -319 8 -329 18
-18 18 -24 16 -55 -23z"/>
<path d="M3270 2347 c-30 -29 -109 -102 -175 -162 -66 -61 -122 -112 -125
-115 -66 -66 -112 -99 -148 -105 -40 -6 -40 -7 -36 -43 10 -73 15 -82 73 -126
33 -26 62 -46 65 -46 3 0 1 12 -4 26 -6 14 -10 36 -10 50 l0 24 263 0 c213 0
267 -3 291 -15 38 -20 37 -20 68 19 24 30 26 37 17 77 -16 74 -18 76 -39 44
-34 -53 -44 -54 -319 -55 -243 0 -254 1 -235 18 29 25 387 355 404 371 13 13
15 12 18 -8 3 -20 8 -17 37 28 18 27 36 55 40 61 4 6 -17 10 -62 10 l-68 0
-55 -53z"/>
<path d="M2116 1713 c22 -127 90 -197 271 -278 133 -59 363 -176 398 -202 20
-15 19 -15 -5 -10 -14 3 -68 23 -120 45 -72 30 -410 171 -528 219 -29 12 16
-99 63 -155 39 -46 108 -75 342 -142 228 -65 283 -85 283 -100 0 -6 -4 -10 -8
-10 -5 0 -165 32 -356 70 -192 39 -355 70 -363 70 -12 0 -11 -6 4 -31 66 -102
148 -148 292 -160 200 -18 417 -40 441 -45 19 -4 36 -25 68 -83 64 -116 185
-231 242 -231 60 0 201 131 260 242 18 33 37 61 43 63 7 3 132 16 279 29 287
26 322 35 389 94 36 32 76 98 66 108 -3 4 -162 -24 -352 -61 -306 -61 -373
-70 -353 -49 4 3 116 39 250 81 133 41 262 85 285 99 54 31 120 107 135 156 6
21 9 40 6 43 -2 3 -148 -56 -324 -130 -175 -74 -322 -135 -326 -135 -35 0 29
38 256 150 145 72 282 146 304 166 49 42 95 129 90 173 l-3 32 -320 -196 -320
-195 -65 0 c-117 0 -220 -36 -220 -76 0 -7 11 -30 25 -50 28 -41 31 -77 11
-113 -14 -24 -14 -24 -20 -3 -8 23 -43 35 -133 46 -29 4 -70 13 -92 21 -22 7
-228 139 -458 293 -230 153 -424 282 -431 286 -10 6 -12 0 -6 -31z"/>
<path d="M3076 1485 c-56 -52 -80 -58 -205 -52 -83 3 -133 11 -175 26 -72 26
-85 21 -19 -7 253 -108 523 -121 772 -35 94 31 114 47 35 26 -72 -18 -226 -21
-275 -5 -20 7 -45 22 -55 33 -34 38 -49 40 -78 14z"/>
<path d="M3090 1275 c0 -2 10 -10 23 -16 20 -11 21 -11 8 4 -13 16 -31 23 -31
12z"/>
<path d="M16652 3765 c-82 -18 -137 -51 -200 -120 -66 -72 -94 -144 -94 -245
-1 -342 414 -508 646 -260 253 270 8 703 -352 625z m179 -128 c33 -22 49 -57
49 -108 0 -34 -7 -48 -35 -76 l-35 -35 40 -74 c22 -40 40 -76 40 -79 0 -3 -13
-5 -28 -5 -25 0 -33 9 -68 75 l-39 75 -47 0 -48 0 0 -75 0 -75 -30 0 -30 0 0
193 c0 107 3 197 8 201 4 5 50 6 102 4 68 -3 102 -9 121 -21z"/>
<path d="M16660 3534 l0 -76 66 4 c55 3 70 8 85 27 25 30 24 62 -2 95 -18 23
-27 26 -85 26 l-64 0 0 -76z"/>
<path d="M7214 3074 c-161 -57 -254 -293 -210 -533 39 -218 163 -332 346 -319
126 9 218 85 270 223 32 83 40 280 15 375 -33 129 -107 222 -202 254 -57 20
-164 19 -219 0z"/>
<path d="M11566 2664 c-21 -8 -68 -19 -105 -24 -168 -27 -200 -33 -263 -51
-119 -34 -175 -117 -149 -219 14 -58 81 -122 145 -140 71 -20 190 -9 252 23
107 54 155 141 162 292 6 136 6 135 -42 119z"/>
<path d="M13780 2659 c-30 -10 -80 -20 -110 -24 -112 -13 -256 -47 -303 -73
-64 -34 -87 -74 -87 -148 0 -68 20 -108 72 -146 47 -36 91 -48 168 -48 102 0
163 22 225 83 75 74 97 137 93 271 l-3 102 -55 -17z"/>
<path d="M14610 3081 c-151 -49 -240 -204 -240 -416 0 -147 40 -264 117 -337
114 -111 321 -109 431 3 152 154 148 523 -6 677 -56 56 -104 75 -197 79 -44 1
-91 -1 -105 -6z"/>
<path d="M15755 3062 c-106 -51 -175 -150 -199 -289 l-5 -33 336 0 336 0 -6
44 c-18 130 -109 254 -211 289 -80 27 -179 23 -251 -11z"/>
<path d="M7966 1174 c-100 -19 -132 -58 -86 -104 38 -38 129 -20 156 31 15 29
19 90 7 88 -5 0 -39 -7 -77 -15z"/>
<path d="M8785 1174 c-77 -15 -110 -41 -99 -78 10 -35 22 -41 79 -41 69 0 95
23 102 89 3 25 2 46 -3 45 -5 0 -40 -7 -79 -15z"/>
<path d="M9152 1325 c-40 -17 -62 -65 -62 -132 0 -65 28 -108 79 -124 82 -24
136 25 135 126 0 74 -22 119 -65 134 -40 14 -46 14 -87 -4z"/>
<path d="M9585 1324 c-31 -16 -46 -34 -57 -71 -6 -23 -6 -23 103 -23 60 0 109
2 109 5 0 3 -7 21 -15 41 -10 23 -26 39 -49 49 -44 19 -54 19 -91 -1z"/>
<path d="M10773 1325 c-29 -12 -63 -58 -63 -85 0 -6 38 -10 105 -10 99 0 105
1 105 21 0 33 -19 60 -55 75 -42 17 -51 17 -92 -1z"/>
<path d="M11285 1183 c-117 -17 -155 -36 -155 -78 0 -57 97 -75 151 -27 26 23
30 33 27 67 -2 34 -6 40 -23 38z"/>
<path d="M13925 1174 c-77 -15 -110 -41 -99 -78 10 -35 22 -41 79 -41 69 0 95
23 102 89 3 25 2 46 -3 45 -5 0 -40 -7 -79 -15z"/>
<path d="M14463 1326 c-29 -13 -63 -59 -63 -86 0 -6 38 -10 105 -10 98 0 105
1 105 20 0 29 -50 79 -85 85 -16 3 -44 -1 -62 -9z"/>
</g>
</svg>
